<svg xmlns="http://www.w3.org/2000/svg" width="31" height="30" fill="none" viewBox="0 0 31 30">
  <path fill="current" fill-rule="evenodd" d="M10.18 2.5c-.69 0-1.25.56-1.25 1.25v5h-5a1.25 1.25 0 100 2.5h5v7.5h-5a1.25 1.25 0 100 2.5h5v5a1.25 1.25 0 102.5 0v-5h7.5v5a1.25 1.25 0 102.5 0v-5h5a1.25 1.25 0 000-2.5h-5v-7.5h5a1.25 1.25 0 000-2.5h-5v-5a1.25 1.25 0 00-2.5 0v5h-7.5v-5c0-.69-.56-1.25-1.25-1.25zm8.75 16.25v-7.5h-7.5v7.5h7.5z" clip-rule="evenodd"/>
  <path fill="current" fill-rule="evenodd" d="M23.93 5H6.43c-.69 0-1.25.56-1.25 1.25v17.5c0 .69.56 1.25 1.25 1.25h17.5c.69 0 1.25-.56 1.25-1.25V6.25c0-.69-.56-1.25-1.25-1.25zM6.43 2.5a3.75 3.75 0 00-3.75 3.75v17.5a3.75 3.75 0 003.75 3.75h17.5a3.75 3.75 0 003.75-3.75V6.25a3.75 3.75 0 00-3.75-3.75H6.43z" clip-rule="evenodd"/>
</svg>
