<svg width="31" height="31" viewBox="0 0 31 31" fill="none" xmlns="http://www.w3.org/2000/svg">
<path fill-rule="evenodd" clip-rule="evenodd" d="M13.9474 4.59859C13.9474 3.90734 14.5078 3.34698 15.199 3.34698C22.1115 3.34698 27.7152 8.95064 27.7152 15.8631C27.7152 22.7756 22.1115 28.3792 15.199 28.3792C8.28658 28.3792 2.68291 22.7756 2.68291 15.8631C2.68291 15.1719 3.24328 14.6115 3.93453 14.6115C4.62577 14.6115 5.18614 15.1719 5.18614 15.8631C5.18614 21.3931 9.66907 25.876 15.199 25.876C20.729 25.876 25.2119 21.3931 25.2119 15.8631C25.2119 10.3331 20.729 5.8502 15.199 5.8502C14.5078 5.8502 13.9474 5.28983 13.9474 4.59859Z" fill="current"/>
<path fill-rule="evenodd" clip-rule="evenodd" d="M13.9474 10.8567C13.9474 10.1654 14.5078 9.60504 15.199 9.60504C18.6553 9.60504 21.4571 12.4069 21.4571 15.8631C21.4571 19.3193 18.6553 22.1212 15.199 22.1212C14.5078 22.1212 13.9474 21.5608 13.9474 20.8696C13.9474 20.1783 14.5078 19.6179 15.199 19.6179C17.2728 19.6179 18.9539 17.9368 18.9539 15.8631C18.9539 13.7894 17.2728 12.1083 15.199 12.1083C14.5078 12.1083 13.9474 11.5479 13.9474 10.8567Z" fill="current"/>
</svg>
