<svg xmlns="http://www.w3.org/2000/svg" width="31" height="30" fill="none" viewBox="0 0 31 30">
  <path fill="current" fill-rule="evenodd" d="M19.54 22.135a8.747 8.747 0 005.583-5.037 8.75 8.75 0 00-5.584-11.733v16.77zm-1.253 2.796c-.687.076-1.248-.49-1.248-1.181v-20c0-.69.561-1.257 1.247-1.18a11.25 11.25 0 010 22.36zM12.04 7.865a8.746 8.746 0 00-5.585 5.037 8.75 8.75 0 005.584 11.733V7.865zm1.252-2.795c.686-.077 1.247.49 1.247 1.18v20c0 .69-.561 1.257-1.247 1.18a11.25 11.25 0 010-22.36z" clip-rule="evenodd"/>
</svg>
