<svg width="30" height="30" viewBox="0 0 130 121" fill="none" xmlns="http://www.w3.org/2000/svg">
<circle cx="65.2766" cy="58.4477" r="57.4477" stroke="current" stroke-width="2" fill="none"/>
<path d="M30.6336 13.1017C29.9275 13.0882 29.4575 12.367 29.7302 11.7156L32.317 5.53777C32.7172 4.58212 34.1279 4.79087 34.2342 5.82146L34.6278 9.63954C34.6637 9.98756 34.8788 10.2915 35.1951 10.4411L37.036 11.3113C38.0103 11.7719 37.6671 13.2357 36.5896 13.2152L30.6336 13.1017Z" fill="current"/>
<path d="M93.7933 9.69632C93.4534 9.07729 93.8449 8.31058 94.5456 8.22283L101.191 7.39066C102.219 7.26193 102.741 8.58933 101.9 9.19455L98.7844 11.4367C98.5004 11.6411 98.3439 11.9791 98.3717 12.3278L98.5335 14.3576C98.6191 15.4319 97.1787 15.863 96.66 14.9183L93.7933 9.69632Z" fill="current"/>
<path d="M121.909 51.8457C122.274 51.2408 123.133 51.1937 123.561 51.7553L127.622 57.0815C128.25 57.9054 127.365 59.0234 126.419 58.6008L122.914 57.0352C122.595 56.8925 122.224 56.9271 121.937 57.1265L120.263 58.2868C119.378 58.9009 118.281 57.8725 118.837 56.9493L121.909 51.8457Z" fill="current"/>
<path d="M94.3388 106.844C95.045 106.849 95.5233 107.565 95.258 108.22L92.7423 114.427C92.3531 115.387 90.9401 115.194 90.822 114.165L90.3846 110.352C90.3447 110.004 90.1261 109.703 89.8081 109.557L87.9573 108.708C86.9778 108.258 87.3042 106.791 88.3819 106.799L94.3388 106.844Z" fill="current"/>
<path d="M8.71472 64.4101C8.39855 65.0415 7.54521 65.1552 7.07477 64.6286L2.97385 60.0376C2.26256 59.2414 3.12693 58.034 4.10994 58.4508L6.77684 59.5813C7.11463 59.7245 7.50373 59.6713 7.79059 59.4425L9.91836 57.7459C10.7563 57.0777 11.9158 58.0172 11.436 58.9755L8.71472 64.4101Z" fill="current"/>
<path d="M47.6546 112.522C48.0655 113.097 47.7679 113.904 47.0825 114.075L41.1085 115.56C40.0723 115.817 39.4078 114.489 40.2351 113.814L42.4795 111.983C42.7637 111.751 42.8982 111.382 42.8297 111.022L42.322 108.348C42.122 107.295 43.494 106.708 44.1177 107.58L47.6546 112.522Z" fill="current"/>
</svg>
