<svg xmlns="http://www.w3.org/2000/svg" width="28" height="26" fill="none" viewBox="0 0 28 26">
  <path fill="#fff" fill-rule="evenodd" d="M16.524 5.257c4.942 0 8.762 3.82 8.762 8.761 0 4.941-3.82 8.762-8.762 8.762-4.94 0-8.76-3.82-8.76-8.762a1.252 1.252 0 00-2.504 0c0 6.324 4.941 11.265 11.264 11.265 6.324 0 11.265-4.941 11.265-11.265 0-6.323-4.94-11.264-11.265-11.264H4.008a1.252 1.252 0 100 2.503h12.516z" clip-rule="evenodd"/>
  <path fill="#fff" fill-rule="evenodd" d="M.617 3.12a1.252 1.252 0 000 1.77L3.12 7.393a1.252 1.252 0 001.77-1.77L3.272 4.005 4.89 2.387A1.252 1.252 0 103.12.617L.617 3.12z" clip-rule="evenodd"/>
</svg>
