<svg xmlns="http://www.w3.org/2000/svg" width="14" height="14" fill="none" viewBox="0 0 14 14">
  <path fill="#000" fill-rule="evenodd" d="M10.207 8.75c-.264 0-.636.036-1.024.09a.399.399 0 00-.345.344c-.053.388-.09.76-.09 1.024s.037.636.09 1.024c.025.182.163.32.345.345.388.053.76.09 1.024.09s.636-.037 1.024-.09a.399.399 0 00.345-.345c.053-.387.09-.76.09-1.024s-.037-.636-.09-1.024a.399.399 0 00-.345-.345 8.307 8.307 0 00-1.024-.09zM9.024 7.683c-.7.096-1.246.642-1.342 1.342-.055.402-.1.838-.1 1.183 0 .345.045.781.1 1.183.096.7.642 1.246 1.342 1.342.402.055.838.1 1.183.1a9.38 9.38 0 001.183-.1 1.565 1.565 0 001.342-1.342c.055-.402.1-.838.1-1.183a9.38 9.38 0 00-.1-1.183 1.565 1.565 0 00-1.342-1.342 9.384 9.384 0 00-1.183-.1c-.345 0-.781.045-1.183.1zM3.793 8.75c-.264 0-.636.036-1.024.09a.399.399 0 00-.345.344c-.053.388-.09.76-.09 1.024s.037.636.09 1.024c.025.182.163.32.345.345.388.053.76.09 1.024.09s.636-.037 1.024-.09a.399.399 0 00.345-.345c.053-.387.09-.76.09-1.024s-.037-.636-.09-1.024a.399.399 0 00-.345-.345 8.307 8.307 0 00-1.024-.09zM2.61 7.683c-.7.096-1.246.642-1.342 1.342-.055.402-.1.838-.1 1.183 0 .345.045.781.1 1.183.096.7.642 1.246 1.342 1.342.402.055.838.1 1.183.1a9.38 9.38 0 001.183-.1 1.565 1.565 0 001.342-1.342c.055-.402.1-.838.1-1.183 0-.345-.045-.781-.1-1.183a1.565 1.565 0 00-1.342-1.342 9.383 9.383 0 00-1.183-.1c-.345 0-.781.045-1.183.1zM10.207 2.334c-.264 0-.636.036-1.024.09a.399.399 0 00-.345.344c-.053.388-.09.76-.09 1.024s.037.636.09 1.024c.025.182.163.32.345.345.388.053.76.09 1.024.09s.636-.037 1.024-.09a.399.399 0 00.345-.345c.053-.388.09-.76.09-1.024s-.037-.636-.09-1.024a.399.399 0 00-.345-.345 8.305 8.305 0 00-1.024-.09zM9.024 1.267c-.7.096-1.246.642-1.342 1.342-.055.402-.1.838-.1 1.183 0 .345.045.781.1 1.183.096.7.642 1.246 1.342 1.342.402.055.838.1 1.183.1.345 0 .781-.045 1.183-.1a1.565 1.565 0 001.342-1.342c.055-.402.1-.838.1-1.183a9.38 9.38 0 00-.1-1.183 1.565 1.565 0 00-1.342-1.342 9.384 9.384 0 00-1.183-.1c-.345 0-.781.045-1.183.1zM3.793 2.334c-.264 0-.636.036-1.024.09a.399.399 0 00-.345.344c-.053.388-.09.76-.09 1.024s.037.636.09 1.024c.025.182.163.32.345.345.388.053.76.09 1.024.09s.636-.037 1.024-.09a.399.399 0 00.345-.345c.053-.388.09-.76.09-1.024s-.037-.636-.09-1.024a.399.399 0 00-.345-.345 8.305 8.305 0 00-1.024-.09zM2.61 1.267c-.7.096-1.246.642-1.342 1.342-.055.402-.1.838-.1 1.183 0 .345.045.781.1 1.183.096.7.642 1.246 1.342 1.342.402.055.838.1 1.183.1.345 0 .781-.045 1.183-.1a1.565 1.565 0 001.342-1.342c.055-.402.1-.838.1-1.183 0-.345-.045-.781-.1-1.183a1.565 1.565 0 00-1.342-1.342 9.383 9.383 0 00-1.183-.1c-.345 0-.781.045-1.183.1z" clip-rule="evenodd"/>
</svg>
